<svg width="241" height="242" viewBox="0 0 241 242" fill="none" xmlns="http://www.w3.org/2000/svg">
<path d="M137.686 160.43L205.86 228.603" stroke="#15786C" stroke-width="16"/>
<path d="M159.885 138.231L228.058 206.405" stroke="#15786C" stroke-width="16"/>
<path d="M228.058 206.405C231.002 209.349 232.656 213.341 232.656 217.504C232.656 221.667 231.002 225.66 228.058 228.603" stroke="#15786C" stroke-width="16" stroke-linecap="round" stroke-linejoin="round"/>
<path d="M205.86 228.603C208.803 231.547 212.796 233.201 216.959 233.201C221.122 233.201 225.115 231.547 228.058 228.603" stroke="#15786C" stroke-width="16" stroke-linecap="round" stroke-linejoin="round"/>
<path d="M78.9388 8.8484C88.2148 8.8484 97.3999 10.6754 105.97 14.2252C114.54 17.775 122.327 22.978 128.886 29.5371C135.445 36.0962 140.648 43.883 144.198 52.4529C147.747 61.0228 149.574 70.2079 149.574 79.4839C149.574 88.7599 147.747 97.9451 144.197 106.515C140.648 115.085 135.445 122.872 128.886 129.431C122.327 135.99 114.54 141.193 105.97 144.743C97.3999 148.292 88.2148 150.119 78.9388 150.119C60.2051 150.119 42.2386 142.678 28.9919 129.431C15.7452 116.184 8.30322 98.2177 8.30322 79.4839C8.30322 70.2079 10.1303 61.0228 13.68 52.4529C17.2298 43.883 22.4328 36.0962 28.9919 29.5371C35.551 22.978 43.3378 17.775 51.9077 14.2252C60.4776 10.6754 69.6628 8.8484 78.9388 8.8484Z" stroke="#15786C" stroke-width="16" stroke-linecap="round" stroke-linejoin="round"/>
<path d="M137.686 160.43L159.885 138.231" stroke="#15786C" stroke-width="16" stroke-linecap="round" stroke-linejoin="round"/>
<path d="M148.786 149.331L128.886 129.431" stroke="#15786C" stroke-width="16" stroke-linecap="round" stroke-linejoin="round"/>
<path d="M156.634 179.378L178.833 157.179" stroke="#15786C" stroke-width="16" stroke-linecap="round" stroke-linejoin="round"/>
<path d="M78.9388 40.242C89.3464 40.242 99.3277 44.3764 106.687 51.7357C114.046 59.095 118.181 69.0763 118.181 79.4839" stroke="#15786C" stroke-width="16" stroke-linecap="round" stroke-linejoin="round"/>
</svg>
