<svg width="389" height="480" viewBox="0 0 389 480" fill="none" xmlns="http://www.w3.org/2000/svg">
<path d="M20.3133 93.4253C19.242 94.532 18.2231 95.6244 17.26 96.7021C9.55185 105.328 5.98379 112.893 5.92369 117.143L0.828282 476.106L238.803 479.485L243.9 120.521C243.959 116.271 240.609 108.609 233.147 99.7674C225.687 90.9264 214.705 81.0326 202.11 71.0567C191.189 62.4053 179.153 53.7432 167.068 45.3442C164.608 61.2541 158.925 76.9399 147.25 93.7612C152.73 97.4779 157.201 102.497 160.263 108.368C163.325 114.239 164.882 120.778 164.794 127.399C164.643 138.006 160.285 148.12 152.678 155.514C145.071 162.908 134.839 166.978 124.231 166.827C118.979 166.753 113.793 165.644 108.969 163.565C104.144 161.487 99.7772 158.478 96.1159 154.711C92.4546 150.945 89.5712 146.494 87.6301 141.612C85.689 136.731 84.7283 131.516 84.8029 126.263C84.8789 120.913 86.0277 115.632 88.1813 110.733C90.3349 105.835 93.4495 101.418 97.3406 97.745C104.908 90.6011 114.961 86.6876 125.367 86.8351C126.904 86.865 128.438 86.9835 129.962 87.1901C144.73 67.8549 149.133 52.2753 150.314 33.8495C141.998 28.2075 133.873 22.7486 126.347 17.6185C102.597 32.8383 73.2502 50.8476 49.101 68.8845C39.4469 76.0948 30.6986 83.2847 23.677 90.0687C22.5068 91.1994 21.3839 92.318 20.3133 93.4253ZM157.708 5.29651C155.434 7.81734 153.94 11.1068 153.423 14.2237C158.873 17.8964 164.31 21.5887 169.733 25.3006L170.878 18.9132C171.33 18.9868 171.561 18.9606 172.201 19.1544C177.564 20.7729 187.628 26.3831 199.317 35.0819C222.697 52.4782 253.725 81.932 282.762 115.913C311.798 149.893 338.938 188.527 355.143 224.02C371.349 259.514 375.912 290.912 364.362 311.661C360.183 319.169 356.423 320.99 349.956 321.018C343.489 321.047 333.895 317.734 322.907 311.016C304.294 299.637 281.984 279.225 259.978 255.902L259.616 281.471C277.935 299.885 296.301 315.847 313.517 326.372C326.047 334.033 338.071 339.071 350.037 339.018C362.004 338.964 373.494 332.268 380.091 320.416C396.14 291.586 388.812 254.428 371.516 216.545C354.22 178.661 326.25 139.097 296.446 104.219C266.644 69.3413 235.101 39.2723 210.063 20.6414C197.543 11.326 186.936 4.79798 177.401 1.92147C172.635 0.482512 167.731 -0.370964 162.453 1.84087C161.134 2.39382 159.93 3.18721 158.858 4.14887C158.455 4.5095 158.072 4.89275 157.708 5.29651ZM116.006 203.539L134.005 203.791L133.428 244.763C142.724 245.298 151.593 246.754 160.028 249.146C170.069 251.974 179.279 256.015 187.661 261.28L187.168 284.701C178.748 277.621 169.757 272.236 160.193 268.547C150.63 264.859 140.533 262.902 129.901 262.678C108.945 262.236 93.0725 267.461 82.2834 278.349C71.5708 289.239 65.9825 305.686 65.5186 327.69C65.0562 349.621 69.9473 366.253 80.1904 377.585C90.5113 388.919 106.15 394.808 127.106 395.249C135.29 395.422 142.607 394.922 149.059 393.749C155.513 392.505 161.332 390.522 166.516 387.797L167.437 344.115L129.578 343.315L129.959 325.235L190.763 326.515L189.291 396.342C180.215 402.18 170.252 406.547 159.402 409.442C149.671 411.975 139.375 413.258 128.525 413.311L127.683 448.993L109.687 448.567L110.546 412.228C90.5241 409.572 74.4642 402.08 62.3734 389.743C47.6211 374.538 40.5238 353.68 41.0824 327.174C41.6241 301.425 49.1222 281.346 63.5727 266.935C64.0387 266.471 64.5117 266.013 64.9918 265.56C77.8711 253.422 94.6931 246.556 115.425 244.923L116.006 203.539Z" fill="#15786C"/>
</svg>
